<?xml version="1.0" encoding="UTF-8" standalone="no"?>
<!-- Created with Inkscape (http://www.inkscape.org/) -->

<svg
   xmlns:dc="http://purl.org/dc/elements/1.1/"
   xmlns:cc="http://creativecommons.org/ns#"
   xmlns:rdf="http://www.w3.org/1999/02/22-rdf-syntax-ns#"
   xmlns:svg="http://www.w3.org/2000/svg"
   xmlns="http://www.w3.org/2000/svg"
   version="1.1"
   width="500"
   height="500"
   id="svg2">
  <defs
     id="defs4" />
  <metadata
     id="metadata7">
    <rdf:RDF>
      <cc:Work
         rdf:about="">
        <dc:format>image/svg+xml</dc:format>
        <dc:type
           rdf:resource="http://purl.org/dc/dcmitype/StillImage" />
        <dc:title></dc:title>
      </cc:Work>
    </rdf:RDF>
  </metadata>
  <g
     transform="translate(0,-552.36218)"
     id="layer1">
    <rect
       width="20"
       height="300"
       x="846.55304"
       y="382.98074"
       transform="matrix(0.82639122,0.5630964,-0.5630964,0.82639122,0,0)"
       id="rect2987"
       style="fill:#b59137;fill-opacity:1;fill-rule:nonzero;stroke:none" />
    <path
       d="m 120,275 a 15,35 0 1 1 -30,0 15,35 0 1 1 30,0 z"
       transform="matrix(1.3333333,0,0,0.57142857,321.52887,685.22061)"
       id="path2991"
       style="fill:#000000;fill-opacity:1;fill-rule:nonzero;stroke:none" />
    <path
       d="m 120,275 a 15,35 0 1 1 -30,0 15,35 0 1 1 30,0 z"
       transform="matrix(1.3333333,0,0,0.57142857,271.52887,760.22061)"
       id="path2991-5"
       style="fill:#000000;fill-opacity:1;fill-rule:nonzero;stroke:none" />
    <path
       d="M 410,310 C 279.7764,263.03513 141.74827,256.94405 10,280"
       transform="translate(0,552.36218)"
       id="path3799"
       style="fill:none;stroke:#000000;stroke-width:1px;stroke-linecap:butt;stroke-linejoin:miter;stroke-opacity:1" />
    <path
       d="M 440,310 C 318.96492,188.46198 155.41981,171.0174 -10,190"
       transform="translate(0,552.36218)"
       id="path3801"
       style="fill:none;stroke:#000000;stroke-width:1px;stroke-linecap:butt;stroke-linejoin:miter;stroke-opacity:1" />
    <path
       d="M 440,320 C 331.71896,138.79368 145.31399,35.261356 -60,100"
       transform="translate(0,552.36218)"
       id="path3803"
       style="fill:none;stroke:#000000;stroke-width:1px;stroke-linecap:butt;stroke-linejoin:miter;stroke-opacity:1" />
    <path
       d="M 430,330 C 308.6533,189.57728 134.76332,200.62583 -30,260"
       transform="translate(0,552.36218)"
       id="path3805"
       style="fill:none;stroke:#000000;stroke-width:1px;stroke-linecap:butt;stroke-linejoin:miter;stroke-opacity:1" />
    <path
       d="M 440,330 C 304.11643,283.78385 146.567,298.07319 20,330"
       transform="translate(0,552.36218)"
       id="path3807"
       style="fill:none;stroke:#000000;stroke-width:1px;stroke-linecap:butt;stroke-linejoin:miter;stroke-opacity:1" />
  </g>
</svg>
