<?xml version="1.0" standalone="no"?>
<!DOCTYPE svg PUBLIC "-//W3C//DTD SVG 20010904//EN"
 "http://www.w3.org/TR/2001/REC-SVG-20010904/DTD/svg10.dtd">
<svg version="1.0" xmlns="http://www.w3.org/2000/svg"
 width="700.000000pt" height="700.000000pt" viewBox="0 0 700.000000 700.000000"
 preserveAspectRatio="xMidYMid meet">
<metadata>
Created by potrace 1.11, written by Peter Selinger 2001-2013
</metadata>
<g transform="translate(0.000000,700.000000) scale(0.100000,-0.100000)"
fill="#000000" stroke="none">
<path d="M3284 6989 c-1189 -72 -2256 -746 -2842 -1794 -385 -689 -524 -1533
-381 -2320 139 -765 535 -1470 1109 -1979 501 -443 1063 -718 1705 -835 400
-72 850 -72 1250 0 1024 186 1917 825 2425 1734 323 576 467 1198 438 1880
-51 1177 -710 2255 -1748 2858 -575 334 -1279 498 -1956 456z m640 -144 c373
-52 701 -148 1012 -295 918 -434 1600 -1268 1838 -2250 67 -279 91 -484 91
-800 0 -258 -8 -359 -46 -580 -196 -1142 -988 -2118 -2069 -2550 -601 -240
-1272 -301 -1910 -174 -866 172 -1626 677 -2128 1412 -399 585 -599 1275 -579
1987 7 223 24 371 67 585 220 1082 962 1988 1985 2425 326 139 653 218 1070
259 94 9 565 -4 669 -19z"/>
<path d="M3313 6593 l-82 -4 -5 -32 c-8 -50 -58 -718 -54 -722 2 -2 40 -1 86
2 l82 6 0 46 c0 79 7 91 51 91 27 0 39 -4 39 -15 0 -7 5 -37 11 -66 l11 -52
75 6 c41 3 77 8 80 11 6 6 -47 304 -101 571 l-32 160 -39 1 c-22 0 -77 -1
-122 -3z m66 -250 c6 -43 14 -111 18 -150 l6 -73 -27 0 -26 0 0 150 c0 83 4
150 9 150 5 0 14 -35 20 -77z"/>
<path d="M3807 6478 c-52 -340 -87 -580 -87 -602 0 -25 3 -26 110 -41 l45 -7
24 178 c13 98 26 185 29 193 13 33 21 -29 21 -167 l1 -142 -30 -42 c-24 -33
-45 -47 -98 -68 -132 -51 -239 -139 -317 -259 -30 -47 -50 -68 -60 -65 -7 3
-35 39 -62 80 -26 40 -51 74 -54 74 -3 0 -23 -15 -46 -34 -38 -33 -40 -39 -51
-117 -7 -46 -16 -87 -21 -92 -5 -5 -63 -21 -129 -37 -157 -38 -287 -87 -442
-166 -286 -148 -531 -372 -712 -654 -39 -60 -82 -112 -116 -140 -30 -25 -72
-69 -94 -97 l-40 -53 -47 32 c-78 53 -91 68 -91 109 0 58 17 90 77 146 63 59
65 73 13 135 -26 31 -39 39 -80 44 -28 4 -50 10 -50 14 0 4 -61 40 -135 81
-74 41 -135 80 -135 87 0 7 9 31 20 52 l20 40 -37 24 c-65 42 -76 41 -102 -4
-12 -22 -26 -42 -31 -45 -5 -3 -31 6 -57 19 -81 42 -78 36 -44 104 17 34 31
64 31 67 0 6 -96 55 -107 55 -9 0 -158 -279 -152 -284 2 -2 117 -63 254 -136
138 -73 271 -145 296 -160 31 -19 50 -25 56 -19 6 6 -4 -32 -22 -83 -25 -72
-37 -94 -52 -96 -11 -2 -58 7 -104 18 -92 24 -132 21 -174 -12 -62 -49 -72
-139 -24 -211 19 -29 29 -54 25 -64 -6 -14 -11 -12 -39 14 -90 87 -243 112
-349 57 -97 -50 -161 -144 -174 -258 -6 -54 -5 -58 12 -52 186 58 515 151 522
147 14 -9 33 -74 25 -82 -5 -3 -37 -16 -73 -27 -36 -12 -152 -48 -257 -82
-106 -34 -193 -66 -193 -73 0 -6 27 -37 59 -68 65 -63 126 -89 211 -89 145 0
278 111 304 253 11 59 49 47 64 -21 20 -88 71 -128 151 -118 25 3 83 7 128 9
78 3 83 5 135 45 35 26 65 42 83 42 28 0 28 0 21 -52 -14 -114 -18 -328 -7
-431 45 -446 226 -830 536 -1143 274 -276 601 -444 1020 -525 46 -9 147 -14
300 -14 200 0 245 3 344 23 318 64 616 208 865 417 l80 67 34 -69 c25 -49 37
-90 44 -148 6 -45 16 -87 25 -97 8 -9 12 -21 9 -27 -4 -6 77 -136 180 -291
103 -154 185 -282 182 -285 -4 -4 -291 296 -429 449 l-36 39 -34 -24 c-59 -41
-138 -104 -139 -111 0 -6 578 -572 641 -627 l37 -31 109 85 c167 130 167 86 5
351 -147 242 -341 556 -348 564 -3 2 -13 -1 -23 -7 -11 -7 -20 -10 -22 -8 -2
2 -3 42 -1 90 l4 87 26 -7 c55 -13 87 -40 87 -70 0 -27 21 -45 215 -187 292
-215 505 -367 523 -373 22 -9 242 292 227 310 -24 29 -121 89 -128 79 -28 -43
-88 -114 -97 -114 -5 0 -50 30 -98 66 l-88 65 19 32 c10 18 25 42 33 55 13 22
12 25 -25 56 -21 19 -51 40 -66 49 -26 16 -27 16 -64 -33 -21 -28 -41 -50 -45
-50 -15 0 -81 63 -81 78 0 8 -9 26 -21 38 -29 31 -10 60 48 69 54 8 68 30 60
98 -6 43 -4 48 11 42 9 -3 170 -66 357 -140 187 -74 346 -135 353 -137 11 -3
63 105 87 181 4 14 -26 30 -165 87 -114 46 -170 74 -170 84 1 42 14 40 169
-20 214 -84 192 -84 229 -1 53 118 53 116 -14 147 -33 14 -107 46 -167 70
l-107 45 -66 -27 c-36 -14 -67 -24 -68 -22 -2 1 -13 30 -25 64 l-22 60 -107
42 c-59 23 -114 42 -124 42 -9 0 -50 -15 -93 -33 l-76 -32 -41 -95 c-49 -115
-53 -122 -84 -114 -14 4 -56 -2 -94 -12 -91 -23 -96 -18 -80 74 11 59 10 84
-4 167 l-16 97 30 99 c71 229 95 411 87 644 -6 171 -23 286 -64 430 -78 280
-210 520 -412 752 l-57 64 11 68 c5 37 23 92 40 123 28 55 29 57 13 90 -10 18
-20 50 -23 71 -7 45 -44 73 -153 113 l-72 26 -16 57 c-30 107 -108 224 -187
281 -23 16 -75 66 -115 110 l-73 80 46 297 c25 164 48 314 51 334 l5 36 -96
13 c-52 7 -97 11 -99 9 -1 -2 -29 -85 -60 -183 -40 -125 -61 -175 -67 -165 -5
8 -9 94 -9 191 0 201 10 180 -100 198 -103 16 -94 24 -113 -102z m329 -325
c-3 -16 -13 -73 -22 -128 -9 -55 -19 -103 -23 -107 -10 -11 -50 2 -46 15 2 7
20 65 40 130 20 64 40 117 46 117 6 0 8 -11 5 -27z m50 -313 c70 -39 133 -105
172 -177 30 -58 67 -188 74 -263 l3 -35 -50 4 c-27 1 -53 5 -57 8 -5 2 -8 30
-8 62 0 145 -79 315 -181 388 -27 19 -49 37 -49 39 0 13 52 0 96 -26z m-546
-213 c0 -2 -12 -14 -27 -28 l-28 -24 24 28 c23 25 31 32 31 24z m851 -64 c13
-16 12 -17 -3 -4 -10 7 -18 15 -18 17 0 8 8 3 21 -13z m-1134 -72 c34 -53 142
-145 208 -180 63 -32 149 -49 285 -56 298 -15 652 -60 711 -90 44 -23 52 -40
44 -91 l-7 -47 74 7 c42 4 95 17 126 31 35 16 52 20 52 11 0 -24 -101 -165
-146 -205 -66 -58 -78 -55 -71 17 3 31 9 68 13 81 7 23 5 24 -27 18 -95 -16
-145 -61 -173 -158 -17 -59 -38 -78 -64 -57 -12 10 -13 28 -8 93 5 60 4 77 -5
68 -7 -7 -10 -56 -7 -154 4 -166 12 -188 98 -282 27 -30 50 -58 50 -61 0 -11
-73 -6 -145 9 -38 8 -106 32 -150 54 l-80 40 -32 -32 c-35 -32 -42 -71 -23
-108 8 -14 21 -19 53 -19 l43 0 37 -75 c20 -42 37 -79 37 -84 0 -11 -111 -31
-171 -31 -57 0 -147 24 -178 48 -14 10 -36 38 -49 63 -21 39 -23 53 -19 131 5
90 -1 101 -23 48 -7 -16 -16 -30 -19 -30 -4 0 -12 27 -19 60 -16 87 -39 130
-80 147 -95 40 -239 -71 -332 -257 -78 -156 -104 -298 -76 -429 40 -190 121
-218 421 -146 81 20 176 39 211 42 l64 6 0 -35 0 -35 69 -7 c38 -3 82 -3 97 0
20 4 50 -4 99 -27 l70 -31 33 38 c43 50 107 179 122 247 12 53 13 53 81 85 53
25 77 44 106 82 21 28 40 50 44 50 8 0 49 -103 49 -121 0 -7 -16 -10 -41 -7
-47 4 -47 3 -4 -100 35 -84 31 -123 -13 -136 -27 -8 -32 -13 -28 -30 4 -12 9
-32 12 -46 l7 -25 -31 28 c-27 26 -31 27 -35 10 -45 -151 -50 -164 -83 -193
-19 -16 -38 -30 -43 -30 -5 0 -31 18 -59 40 -27 22 -55 40 -60 40 -6 0 -26
-18 -43 -40 -37 -46 -49 -50 -49 -16 0 55 -8 57 -66 25 l-54 -31 0 35 c0 67
-8 73 -51 31 -21 -21 -41 -35 -44 -33 -2 3 0 22 6 43 6 21 9 40 6 42 -2 2 -41
-20 -88 -50 -73 -46 -85 -51 -91 -36 -5 15 -27 18 -165 23 -164 6 -377 35
-473 64 -75 23 -149 100 -213 221 -26 50 -53 92 -59 94 -7 3 1 41 25 113 20
60 35 110 33 112 -2 2 -29 -19 -60 -48 -31 -28 -56 -45 -56 -37 0 7 9 45 20
83 25 86 25 83 -3 87 -24 3 -24 3 -11 68 7 36 16 76 19 89 l6 24 -36 -27 c-20
-16 -39 -25 -42 -22 -9 8 13 75 36 113 12 19 59 55 120 93 56 34 101 64 101
67 0 3 -36 3 -80 0 -45 -4 -78 -3 -75 2 8 14 112 81 149 96 34 15 36 14 65
-17 l29 -31 111 92 c61 51 111 96 111 99 -1 4 -25 24 -55 45 -123 85 -158 202
-120 402 13 69 26 95 45 95 3 0 19 -22 37 -49z m1413 -662 c-27 -68 -60 -111
-105 -139 -42 -26 -49 -23 -40 19 4 19 18 38 39 50 18 12 52 49 76 83 50 70
61 65 30 -13z m-156 -66 c-8 -84 -37 -149 -75 -168 -15 -8 -32 -15 -37 -15 -4
0 -6 27 -4 60 4 59 -2 72 -26 48 -9 -9 -12 -8 -12 8 0 26 14 43 78 93 76 59
84 56 76 -26z m-1753 -103 c34 0 34 0 10 -48 -11 -21 -31 -84 -45 -141 -26
-106 -44 -143 -137 -272 -30 -41 -87 -137 -128 -212 -41 -75 -77 -134 -82
-132 -34 22 -38 373 -5 489 20 71 90 180 143 222 45 36 149 100 184 112 18 7
25 6 27 -4 2 -8 16 -14 33 -14z m-1257 -41 c34 -40 33 -51 -9 -83 -36 -28 -79
-93 -90 -137 -4 -15 -1 -45 5 -68 9 -35 22 -50 80 -92 39 -28 70 -56 70 -62 0
-7 -5 -46 -12 -89 -9 -65 -9 -86 5 -145 10 -37 17 -71 17 -75 0 -4 -16 -4 -36
-1 -30 5 -40 1 -67 -24 -55 -51 -79 -63 -130 -63 l-49 0 21 34 c41 65 16 166
-40 166 -16 0 -16 -4 6 -36 41 -60 30 -111 -32 -154 -74 -51 -159 -18 -169 66
-5 39 -5 39 52 69 32 17 70 47 86 67 36 44 48 107 24 127 -15 13 -16 10 -11
-25 7 -49 -17 -90 -77 -135 -37 -27 -49 -30 -91 -26 -53 5 -83 26 -103 74 -18
42 -17 83 2 108 12 17 27 20 92 20 65 0 86 5 137 30 33 17 63 32 67 33 5 2 8
-2 8 -10 0 -32 23 -90 46 -118 39 -46 47 -36 13 18 -27 42 -30 54 -27 114 2
56 -1 71 -19 95 l-22 28 0 -42 c-1 -54 -42 -97 -113 -118 -107 -31 -170 -14
-213 58 -29 50 -31 76 -10 117 22 43 53 60 107 60 50 0 58 -6 33 -24 -12 -8
10 -11 90 -11 l105 -1 11 41 c30 119 66 193 106 224 18 13 43 20 70 21 34 0
46 -5 67 -31z m2086 6 c34 -18 57 -56 66 -113 6 -41 6 -41 -21 -34 -20 6 -31
18 -39 42 -21 64 -73 72 -132 18 -20 -18 -22 -18 -43 -1 -27 22 -21 43 20 67
62 37 106 43 149 21z m800 -55 c16 0 41 5 56 10 15 6 28 9 30 8 1 -2 7 -33 13
-68 6 -40 26 -96 51 -145 22 -44 40 -90 40 -101 0 -31 -84 -120 -126 -134 -55
-19 -131 -8 -161 23 l-26 25 49 25 c115 59 174 127 159 184 -3 13 -44 65 -90
114 -84 88 -114 135 -54 85 17 -15 43 -26 59 -26z m-812 -42 c15 -33 8 -50
-44 -108 -38 -42 -58 -43 -95 -4 -20 21 -21 27 -9 49 7 13 28 41 46 60 41 45
81 46 102 3z m70 -74 c25 -17 29 -55 12 -116 -13 -46 -38 -55 -86 -32 -57 27
-58 61 -4 127 35 41 45 44 78 21z m-1404 -69 c17 -9 41 -24 54 -33 23 -18 23
-19 12 -101 -18 -123 -8 -319 20 -399 l22 -64 -23 -25 c-46 -49 -117 -76 -195
-75 -86 1 -128 17 -189 73 -81 75 -133 217 -121 329 17 143 125 278 251 311
40 11 131 2 169 -16z m-428 -42 c-96 -123 -128 -273 -91 -431 19 -79 42 -124
100 -195 25 -31 43 -57 40 -57 -26 0 -125 63 -166 107 -73 77 -110 163 -111
255 -2 152 70 278 202 352 69 39 76 31 26 -31z m949 -18 c-7 -50 -6 -55 13
-55 19 0 19 -1 2 -83 -14 -69 -25 -96 -62 -148 -64 -89 -160 -264 -194 -354
-16 -41 -32 -75 -35 -75 -8 0 -64 130 -74 171 -7 28 18 84 97 224 57 100 241
375 251 375 5 0 5 -25 2 -55z m1401 -210 c-8 -72 -48 -176 -91 -242 l-35 -53
-60 0 c-32 0 -61 4 -64 9 -3 5 0 79 6 164 l12 156 70 9 c39 5 93 10 120 11
l49 1 -7 -55z m122 2 c30 -11 57 -27 60 -36 16 -42 -50 -202 -115 -280 l-29
-34 -51 27 c-28 14 -54 29 -57 34 -2 4 13 42 34 85 21 42 47 113 57 157 14 64
21 79 33 74 8 -3 39 -15 68 -27z m-869 -56 c16 -10 8 -106 -12 -132 -33 -44
-91 -46 -107 -4 -9 23 2 92 21 126 10 20 72 26 98 10z m170 -44 c15 -39 -1
-100 -31 -116 -25 -14 -29 -14 -55 5 -22 16 -29 31 -31 64 -5 64 0 70 58 70
43 0 52 -3 59 -23z m-312 -52 c-2 -65 15 -89 68 -89 26 0 44 8 68 33 l34 32
17 -26 c31 -48 100 -52 133 -9 9 12 16 13 32 5 33 -18 83 -13 108 10 19 18 25
20 38 9 10 -8 30 -11 60 -7 33 5 45 3 45 -6 0 -9 -76 -28 -238 -61 -265 -53
-298 -53 -353 0 -31 30 -66 122 -56 148 4 9 15 16 27 16 18 0 20 -6 17 -55z
m451 17 c4 -43 -12 -62 -54 -62 -30 0 -34 3 -40 35 -10 55 -1 67 48 63 41 -3
43 -5 46 -36z m136 12 c11 -28 -20 -64 -54 -64 -17 0 -40 32 -40 56 0 22 4 24
44 24 31 0 46 -5 50 -16z m-1023 -33 c27 17 36 9 82 -68 102 -175 158 -210
401 -248 87 -13 199 -27 250 -30 158 -10 176 -14 176 -36 0 -33 27 -33 81 1
28 17 54 29 56 26 3 -3 -2 -24 -11 -47 -9 -23 -14 -44 -11 -47 8 -8 54 15 96
49 20 16 39 29 42 29 3 0 7 -18 9 -40 l3 -40 52 37 c29 20 55 34 58 31 3 -3 9
-25 13 -49 l8 -44 60 58 c34 31 65 57 70 57 5 0 33 -16 63 -36 l53 -36 -7 -76
c-15 -180 -72 -475 -127 -667 l-23 -80 -84 -52 c-46 -29 -87 -53 -90 -53 -3 0
-6 75 -7 168 -1 201 -11 249 -91 410 -48 97 -68 125 -139 197 -91 91 -170 141
-287 183 -63 22 -89 25 -202 26 -98 0 -144 -4 -189 -18 -223 -69 -377 -196
-509 -418 -66 -111 -66 -112 -77 -82 -15 39 -33 260 -28 359 3 75 7 88 65 205
86 172 204 355 219 336 7 -10 15 -12 25 -5z m1944 -133 c47 -54 100 -166 121
-255 42 -178 -24 -437 -144 -565 -42 -45 -190 -153 -198 -145 -2 2 19 71 46
153 57 167 92 314 110 451 13 102 5 183 -29 288 l-19 60 25 15 c18 11 22 21
18 38 -5 20 -3 22 14 13 10 -6 36 -30 56 -53z m-126 -90 c5 -18 16 -61 22 -95
24 -120 -26 -399 -116 -649 -66 -180 -65 -179 -146 -220 -39 -19 -73 -34 -74
-32 -2 2 14 64 36 138 66 226 108 435 119 586 10 128 34 264 48 264 3 0 16
-10 29 -22 l23 -22 17 42 c9 23 20 42 24 42 4 0 12 -15 18 -32z m-1181 -189
c26 -6 88 -31 138 -55 200 -95 350 -296 400 -534 15 -74 20 -267 9 -342 l-7
-47 -127 -70 c-69 -39 -156 -84 -192 -101 -128 -59 -280 -74 -454 -44 -184 31
-377 159 -501 330 -50 69 -154 278 -154 310 0 26 110 213 167 283 102 125 241
217 398 262 70 21 251 25 323 8z m-943 -556 c87 -247 151 -370 240 -459 163
-163 335 -239 585 -259 191 -15 408 53 590 185 36 26 75 52 88 59 22 12 22 11
22 -58 0 -191 -85 -440 -204 -596 -38 -50 -168 -76 -411 -82 -215 -6 -250 0
-239 42 3 14 7 91 8 171 l1 146 -29 25 c-24 21 -37 24 -69 20 -65 -9 -90 -44
-172 -244 -44 -108 -31 -105 -185 -41 -129 54 -245 117 -368 200 -149 102
-145 95 -139 258 8 214 61 386 184 598 36 61 66 112 68 112 1 0 15 -35 30 -77z
m2362 15 c41 -44 61 -85 69 -145 8 -64 -7 -113 -56 -178 -47 -63 -115 -101
-215 -120 -68 -13 -84 -13 -144 0 -37 9 -81 25 -99 36 -29 17 -62 70 -62 98 0
5 39 31 88 57 131 71 260 162 322 227 30 31 57 57 60 57 3 0 20 -15 37 -32z
m225 -355 c0 -86 -2 -98 -35 -165 -46 -97 -94 -150 -169 -187 -124 -62 -273
-32 -367 75 -77 88 -76 96 13 69 62 -19 177 -19 237 -1 80 24 123 52 186 119
49 53 65 79 83 134 12 37 24 75 27 83 11 32 24 -37 25 -127z m534 -102 c133
-55 143 -63 110 -90 -14 -12 -36 -5 -158 48 -46 19 -47 21 -36 46 6 14 12 25
13 25 1 0 33 -13 71 -29z m-327 -70 c27 -17 -1 -51 -91 -108 l-92 -58 125 -3
c112 -2 126 -4 142 -23 19 -23 22 -46 8 -67 -7 -12 -30 -12 -137 -2 -192 18
-194 17 -106 -52 41 -32 91 -63 113 -69 23 -7 39 -19 40 -28 5 -61 -20 -101
-62 -101 -38 0 -61 12 -124 65 -55 46 -183 115 -214 115 -31 0 -42 -31 -35
-98 4 -36 2 -73 -5 -95 -12 -36 -56 -81 -71 -72 -4 2 -10 37 -13 76 -4 53 -15
89 -37 133 -20 39 -31 72 -28 91 3 28 6 30 75 41 129 22 203 69 279 179 35 51
40 55 78 56 23 0 59 6 81 14 50 16 57 17 74 6z m17 -116 c18 -13 17 -14 -18
-15 -37 0 -51 13 -25 23 19 8 22 8 43 -8z"/>
<path d="M3310 5355 c0 -15 47 -126 66 -156 22 -35 71 -62 128 -71 13 -2 23
-16 30 -41 l11 -38 63 72 c35 39 61 73 58 76 -2 2 -18 -3 -35 -11 -67 -35
-125 -9 -241 108 -57 59 -80 76 -80 61z"/>
<path d="M4006 5118 c15 -85 17 -138 6 -156 -6 -9 -20 -4 -53 22 -49 37 -97
56 -142 56 l-29 0 4 -82 c4 -102 32 -166 86 -200 30 -19 50 -23 107 -22 39 1
82 7 97 13 24 9 33 7 65 -15 46 -31 83 -28 100 6 17 37 29 180 14 180 -7 0
-11 -24 -11 -69 0 -52 -5 -74 -18 -91 -10 -13 -23 -20 -29 -17 -6 4 -14 57
-18 119 -9 150 -50 240 -136 304 -52 38 -57 33 -43 -48z m-91 -133 c49 -28 81
-68 124 -151 22 -42 27 -61 18 -66 -31 -20 -177 -2 -177 22 0 4 11 17 25 30
43 40 24 116 -20 80 -13 -11 -15 -8 -15 20 0 31 -2 32 -30 27 -29 -6 -30 -5
-30 28 0 33 2 35 32 35 17 0 50 -11 73 -25z"/>
<path d="M3890 4440 c0 -5 5 -10 10 -10 6 0 10 5 10 10 0 6 -4 10 -10 10 -5 0
-10 -4 -10 -10z"/>
<path d="M4000 4390 c0 -5 7 -10 15 -10 8 0 15 5 15 10 0 6 -7 10 -15 10 -8 0
-15 -4 -15 -10z"/>
<path d="M3914 4329 c-10 -17 13 -36 27 -22 12 12 4 33 -11 33 -5 0 -12 -5
-16 -11z"/>
<path d="M2777 4173 c-14 -13 -6 -33 13 -33 13 0 20 7 20 20 0 19 -20 27 -33
13z"/>
<path d="M2705 4061 c-8 -15 3 -31 21 -31 9 0 14 7 12 17 -4 20 -24 28 -33 14z"/>
<path d="M2641 3937 c-7 -7 -7 -14 0 -23 12 -15 39 -7 39 11 0 18 -25 26 -39
12z"/>
<path d="M2574 3809 c-10 -17 13 -36 27 -22 12 12 4 33 -11 33 -5 0 -12 -5
-16 -11z"/>
<path d="M4671 3586 c-9 -10 -8 -16 4 -26 20 -16 45 -6 45 20 0 23 -31 28 -49
6z"/>
<path d="M4670 3432 c0 -24 8 -32 26 -25 22 8 17 43 -6 43 -13 0 -20 -7 -20
-18z"/>
<path d="M4651 3296 c-8 -10 -8 -16 2 -24 17 -14 42 2 34 22 -8 20 -21 20 -36
2z"/>
<path d="M4616 3155 c-3 -9 1 -18 10 -22 19 -7 39 11 30 26 -10 16 -33 13 -40
-4z"/>
<path d="M4587 3034 c-13 -13 -7 -24 14 -24 11 0 19 5 17 12 -5 14 -22 21 -31
12z"/>
<path d="M4550 2900 c0 -5 5 -10 10 -10 6 0 10 5 10 10 0 6 -4 10 -10 10 -5 0
-10 -4 -10 -10z"/>
<path d="M3467 3514 c-9 -10 2 -24 19 -24 8 0 14 7 14 15 0 15 -21 21 -33 9z"/>
<path d="M3290 3495 c0 -10 7 -15 18 -13 21 4 19 22 -2 26 -10 2 -16 -3 -16
-13z"/>
<path d="M3140 3444 c0 -9 5 -14 12 -12 18 6 21 28 4 28 -9 0 -16 -7 -16 -16z"/>
<path d="M3673 3444 c-7 -19 2 -28 22 -21 19 8 19 23 0 31 -9 3 -18 -1 -22
-10z"/>
<path d="M3015 3379 c-10 -15 1 -23 20 -15 9 3 13 10 10 16 -8 13 -22 13 -30
-1z"/>
<path d="M3233 3353 c-19 -4 -20 -7 -11 -40 6 -24 6 -39 -1 -46 -15 -15 -61
-12 -113 8 -39 16 -49 17 -63 5 -14 -12 -13 -16 17 -47 46 -47 32 -67 -51 -71
-50 -2 -61 -6 -61 -21 0 -11 18 -26 53 -42 42 -19 52 -29 52 -49 0 -17 -6 -26
-20 -29 -11 -2 -30 -7 -43 -12 -19 -7 -21 -12 -12 -29 9 -16 21 -20 66 -20 53
0 104 -20 104 -42 0 -5 -9 -23 -20 -39 l-21 -28 31 -16 c28 -14 33 -14 69 5
36 18 42 18 74 5 29 -12 36 -21 42 -54 5 -29 12 -41 28 -45 40 -11 53 -6 70
24 15 25 24 30 57 30 31 0 44 -6 69 -36 24 -27 38 -35 59 -32 24 3 27 7 27 42
0 56 28 67 100 37 42 -18 58 -20 74 -11 12 6 21 13 21 15 0 2 -14 20 -30 39
-44 50 -33 66 46 66 60 0 64 1 64 23 0 19 -8 26 -42 36 -54 16 -68 28 -68 56
0 18 8 25 38 32 27 6 37 14 37 28 0 17 -8 20 -61 23 -52 2 -65 7 -88 31 -26
28 -26 28 -6 46 26 24 25 39 -3 58 -22 14 -28 14 -68 -5 -41 -18 -47 -18 -76
-4 -24 11 -34 24 -38 49 -6 28 -13 36 -41 45 -33 10 -36 8 -62 -24 -36 -45
-62 -43 -116 6 -24 22 -47 39 -52 39 -5 -1 -19 -4 -31 -6z m302 -162 c117 -41
205 -123 207 -190 2 -49 -21 -79 -81 -109 -50 -24 -67 -27 -156 -26 -116 1
-196 23 -283 81 -138 92 -135 213 6 258 67 21 228 14 307 -14z"/>
<path d="M3286 3129 c-8 -26 -18 -68 -21 -93 l-7 -44 38 -11 c100 -28 241 -52
274 -46 60 11 77 40 43 77 -15 17 -15 19 1 37 10 11 15 25 11 32 -17 26 -145
67 -278 88 l-47 8 -14 -48z m194 -43 c0 -16 -19 -25 -37 -18 -23 8 -14 32 12
32 15 0 25 -6 25 -14z m-9 -57 c26 -13 15 -29 -21 -29 -30 0 -45 13 -35 30 8
13 31 13 56 -1z"/>
<path d="M3842 3313 c4 -21 33 -25 33 -3 0 8 -8 16 -18 18 -14 3 -18 -1 -15
-15z"/>
<path d="M2925 3301 c-3 -5 -1 -12 5 -16 5 -3 10 1 10 9 0 18 -6 21 -15 7z"/>
<path d="M2847 3214 c-8 -8 1 -24 14 -24 5 0 9 7 9 15 0 15 -12 20 -23 9z"/>
<path d="M3950 3150 c0 -15 5 -20 18 -18 9 2 17 10 17 18 0 8 -8 16 -17 18
-13 2 -18 -3 -18 -18z"/>
<path d="M2800 3120 c0 -5 5 -10 10 -10 6 0 10 5 10 10 0 6 -4 10 -10 10 -5 0
-10 -4 -10 -10z"/>
<path d="M4027 2994 c-14 -14 -7 -25 13 -22 12 2 21 8 21 13 0 12 -24 18 -34
9z"/>
<path d="M4051 2846 c-12 -14 -5 -26 16 -26 15 0 18 26 4 34 -5 3 -14 0 -20
-8z"/>
<path d="M4057 2714 c-8 -8 1 -24 14 -24 5 0 9 7 9 15 0 15 -12 20 -23 9z"/>
<path d="M2770 6514 c-74 -19 -138 -38 -142 -42 -6 -6 167 -709 177 -720 3 -4
288 68 294 74 2 2 -2 31 -9 65 l-13 61 -31 -7 c-17 -4 -47 -9 -67 -12 l-36 -5
-17 63 c-28 106 -27 121 14 131 52 14 55 21 41 83 l-13 56 -53 -6 -54 -7 -10
39 c-28 104 -30 100 33 118 32 10 56 22 56 30 0 24 -23 115 -29 114 -3 0 -67
-16 -141 -35z"/>
<path d="M2410 6400 c-114 -45 -230 -97 -230 -103 0 -3 9 -30 21 -60 l21 -55
41 14 c22 8 42 13 43 11 2 -2 56 -127 119 -277 64 -151 118 -276 120 -279 4
-3 154 55 163 64 2 1 -47 127 -108 279 -60 152 -110 280 -110 284 0 4 15 16
34 26 l34 18 -21 52 c-11 28 -23 54 -26 57 -3 4 -49 -10 -101 -31z"/>
<path d="M4883 6218 c-7 -7 -16 -26 -22 -40 -8 -22 -6 -29 10 -40 18 -12 12
-25 -137 -277 -118 -201 -152 -266 -142 -273 36 -24 130 -78 136 -78 7 0 175
272 308 499 l78 134 -22 18 c-26 20 -122 58 -167 66 -20 3 -35 0 -42 -9z"/>
<path d="M1629 5962 c-115 -88 -119 -93 -125 -173 l-5 -74 168 -207 168 -207
84 -1 83 0 64 51 c66 53 69 57 83 149 10 63 14 54 -63 148 -51 63 -61 71 -75
59 -9 -7 -40 -32 -69 -56 l-52 -43 50 -63 c27 -35 50 -68 50 -74 0 -25 -30
-22 -55 6 -81 90 -265 324 -265 337 0 35 25 27 69 -23 25 -28 51 -51 57 -51 6
0 37 24 69 53 l58 52 -52 65 c-45 56 -58 66 -94 72 -80 13 -110 9 -148 -20z"/>
<path d="M5265 5789 c-126 -44 -238 -83 -247 -86 -9 -3 -25 -26 -36 -51 -37
-89 -38 -84 32 -150 l65 -61 -44 -55 c-25 -30 -45 -57 -45 -59 0 -3 27 -29 61
-58 l60 -52 52 51 52 51 25 -19 c23 -18 26 -18 43 -2 11 9 28 29 39 45 19 27
19 27 -1 53 l-20 26 155 176 155 177 -53 47 c-29 26 -55 48 -58 47 -3 0 -108
-36 -235 -80z m25 -108 c0 -5 -28 -39 -63 -77 l-63 -67 -34 31 c-24 20 -32 34
-25 41 10 10 163 79 178 80 4 1 7 -3 7 -8z"/>
<path d="M1253 5583 c-34 -4 -90 -59 -178 -173 l-44 -58 157 -134 c282 -240
401 -338 411 -338 8 0 111 114 111 124 0 1 -49 46 -110 100 -60 53 -110 102
-110 107 0 33 39 13 142 -71 l113 -91 43 47 c73 80 75 71 -44 173 l-105 91
-60 0 -59 0 0 50 c0 49 0 50 -77 115 -81 69 -86 71 -190 58z m88 -200 c57 -46
71 -75 39 -80 -21 -4 -135 101 -126 115 12 20 26 14 87 -35z"/>
<path d="M5686 5464 l-46 -35 30 -42 c17 -23 39 -53 50 -67 20 -27 15 -27 80
13 17 10 22 9 30 -3 14 -22 11 -25 -55 -74 l-60 -45 -27 25 c-29 28 -31 28
-91 -19 l-37 -29 17 -30 18 -30 -44 -38 c-62 -53 -88 -67 -103 -52 -9 9 -4 21
24 50 l37 37 -51 68 -50 67 -28 -17 c-74 -49 -81 -59 -92 -133 l-11 -71 59
-77 c59 -77 60 -77 124 -90 76 -15 92 -10 183 62 55 45 57 48 57 94 0 70 5 74
76 60 l61 -11 70 53 c70 53 71 54 78 109 3 31 8 63 11 72 2 8 -23 51 -56 96
-57 76 -62 81 -106 87 -82 11 -100 7 -148 -30z"/>
<path d="M6042 4954 l-51 -25 19 -50 c18 -44 48 -99 55 -99 1 0 19 7 39 15 41
17 56 13 56 -14 0 -13 -17 -25 -60 -41 l-61 -23 -137 53 c-75 28 -142 52 -147
53 -17 1 -236 -106 -233 -114 2 -3 39 -85 82 -182 l79 -174 56 25 c31 14 58
26 59 28 2 1 -15 46 -38 98 -45 103 -45 118 6 130 25 7 78 -10 236 -73 l77
-31 97 48 98 47 23 69 23 69 -38 86 -38 86 -60 22 c-76 28 -80 28 -142 -3z"/>
<path d="M6200 4252 c-48 -5 -115 -35 -157 -69 -24 -19 -43 -38 -43 -43 0 -15
521 -283 531 -273 12 12 14 108 4 154 -18 81 -95 173 -173 206 -41 17 -123 30
-162 25z"/>
<path d="M5934 4005 c-18 -100 25 -227 99 -288 77 -63 103 -72 202 -72 80 0
96 3 142 29 49 27 111 82 102 89 -4 4 -517 270 -530 275 -4 2 -11 -13 -15 -33z"/>
<path d="M790 3303 c-245 -47 -446 -87 -447 -88 -5 -4 29 -171 37 -185 7 -12
47 -7 240 31 127 25 233 43 235 39 3 -4 -99 -45 -225 -91 -216 -79 -230 -85
-230 -109 0 -14 4 -29 8 -35 4 -6 88 -8 232 -5 211 5 284 1 249 -12 -8 -3
-113 -22 -234 -43 -121 -21 -222 -40 -224 -42 -4 -3 28 -195 34 -201 4 -4 909
168 915 174 4 5 -36 234 -42 238 -2 2 -104 0 -228 -4 -124 -3 -232 -3 -240 1
-18 9 -21 8 233 103 110 41 200 76 202 78 2 2 -7 55 -19 118 -15 83 -25 115
-36 116 -8 1 -215 -36 -460 -83z"/>
<path d="M5792 3306 c-77 -51 -77 -52 -89 -111 -7 -33 -15 -89 -19 -125 l-6
-65 50 -71 50 -71 141 -23 c159 -26 142 -30 247 54 45 36 54 49 69 104 17 61
18 62 53 62 19 0 64 -5 99 -11 59 -10 63 -13 63 -38 0 -27 0 -27 -64 -23 l-64
4 -10 -63 c-6 -35 -14 -85 -17 -111 l-7 -47 33 -6 c19 -3 55 -9 80 -14 46 -8
49 -7 118 44 39 28 74 54 77 57 3 3 14 60 25 127 l20 121 -48 75 c-26 41 -55
77 -63 80 -8 2 -76 15 -149 29 l-135 25 -60 -49 c-84 -66 -93 -78 -114 -146
l-18 -59 -43 2 c-24 1 -67 7 -98 13 -47 10 -54 14 -51 33 3 20 8 22 65 20 72
-3 63 -15 86 124 l14 83 -31 5 c-17 3 -52 9 -79 14 -46 8 -50 7 -125 -43z"/>
<path d="M1028 2449 l-418 -209 36 -77 c30 -68 130 -262 139 -271 2 -2 35 13
74 33 78 41 76 36 31 124 -11 22 -20 47 -20 56 0 15 168 105 196 105 7 0 25
-21 40 -47 15 -27 29 -50 31 -52 5 -7 143 61 143 70 0 4 -9 29 -20 55 -12 26
-19 53 -16 60 3 7 37 30 77 49 81 41 72 45 120 -48 l29 -57 70 35 c39 19 70
40 70 46 0 12 -132 290 -151 317 -14 19 -32 10 -431 -189z"/>
<path d="M1621 2199 c-34 -28 -61 -53 -61 -55 0 -3 14 -23 31 -44 17 -21 30
-43 28 -48 -2 -6 -131 -119 -286 -253 -156 -133 -283 -245 -283 -248 0 -3 32
-43 71 -89 63 -74 73 -81 88 -69 41 35 472 397 519 436 l53 44 38 -37 37 -36
57 49 c32 28 57 54 57 58 0 8 -280 343 -285 343 -2 0 -31 -23 -64 -51z"/>
<path d="M1964 1708 c-111 -115 -345 -363 -467 -497 l-67 -74 79 -58 c44 -33
85 -59 90 -59 5 0 33 27 62 59 56 64 56 64 108 23 l24 -19 -40 -75 -41 -75 85
-63 c46 -34 87 -60 90 -56 3 3 104 190 223 415 l217 410 -26 24 c-25 24 -215
157 -223 157 -2 0 -53 -51 -114 -112z m100 -180 c-9 -18 -53 -93 -96 -166 -68
-114 -81 -131 -97 -123 -48 26 -46 36 20 118 149 185 213 248 173 171z"/>
<path d="M2451 1527 c-5 -12 -88 -204 -185 -426 -97 -223 -173 -408 -169 -412
12 -12 332 -149 347 -149 11 0 83 139 74 144 -2 1 -36 17 -75 36 -40 18 -73
35 -73 36 0 1 63 150 141 331 77 180 145 338 150 350 7 20 2 25 -49 48 -31 15
-78 35 -105 46 l-48 19 -8 -23z"/>
<path d="M4470 1529 c-140 -56 -240 -103 -240 -114 0 -15 227 -864 238 -887 6
-14 18 -12 103 24 l97 40 -19 61 c-27 90 -25 105 16 123 19 7 38 14 42 14 4 0
25 -32 46 -70 21 -39 44 -70 50 -69 21 1 179 74 180 82 1 17 -468 807 -478
806 -5 0 -21 -5 -35 -10z m35 -330 c22 -41 59 -113 82 -161 l42 -88 -29 -15
c-16 -8 -31 -15 -33 -15 -5 0 -63 160 -98 273 -33 107 -20 109 36 6z"/>
<path d="M3898 1360 c-220 -38 -211 -36 -205 -68 3 -15 38 -218 78 -452 40
-234 76 -429 80 -434 4 -4 88 6 186 23 98 17 182 31 187 31 8 0 2 90 -11 138
-5 23 -7 23 -89 17 -46 -4 -84 -6 -84 -4 0 2 -9 51 -20 109 -22 122 -21 124
62 135 44 6 49 9 44 29 -3 11 -8 44 -12 72 -3 28 -9 56 -13 61 -3 6 -30 7 -66
3 -33 -4 -61 -6 -63 -5 -6 5 -32 160 -28 170 2 6 36 17 75 25 54 10 71 17 71
30 0 28 -21 135 -28 141 -4 3 -78 -6 -164 -21z"/>
<path d="M3082 860 c-13 -254 -20 -465 -17 -468 3 -4 89 -11 191 -15 l184 -9
43 35 c110 92 103 79 110 216 l5 124 -56 52 -57 53 53 55 52 56 0 118 -1 118
-52 58 -52 58 -190 6 -191 6 -22 -463z m293 187 c0 -101 -9 -123 -43 -110 -11
5 -13 24 -10 97 4 98 11 119 36 114 15 -3 17 -18 17 -101z m-15 -392 l0 -105
-30 0 c-30 0 -30 1 -30 53 0 28 3 76 6 105 6 46 9 52 30 52 24 0 24 -1 24
-105z"/>
</g>
</svg>
